<svg xmlns="http://www.w3.org/2000/svg" width="1000" height="420" viewBox="0 0 1000 420" role="img" shape-rendering="geometricPrecision" text-rendering="optimizeLegibility" font-family="-apple-system, BlinkMacSystemFont, 'Segoe UI', Inter, 'Helvetica Neue', Arial, sans-serif" style="font-variant-numeric:tabular-nums"><rect width="100%" height="100%" fill="#ffffff"/><text x="28" y="44" font-size="10.5" font-weight="600" fill="#656d76" letter-spacing="0.09em">STATS</text><svg x="28" y="71" width="14" height="14" viewBox="0 0 16 16" fill="none" stroke="#656d76" stroke-width="1.5" stroke-linecap="round" stroke-linejoin="round" aria-hidden="true"><path d="M8 2.6l1.72 3.48 3.84.56-2.78 2.71.66 3.83L8 11.37l-3.44 1.81.66-3.83-2.78-2.71 3.84-.56z"/></svg><text x="50" y="82" font-size="12.5" font-weight="400" fill="#15181d">Total Stars</text><text x="372" y="82" font-size="12.5" font-weight="600" fill="#15181d" text-anchor="end">7,342</text><svg x="28" y="101" width="14" height="14" viewBox="0 0 16 16" fill="none" stroke="#656d76" stroke-width="1.5" stroke-linecap="round" stroke-linejoin="round" aria-hidden="true"><circle cx="8" cy="8" r="2.4"/><path d="M1.4 8h4.2M10.4 8h4.2"/></svg><text x="50" y="112" font-size="12.5" font-weight="400" fill="#15181d">Commits</text><text x="372" y="112" font-size="12.5" font-weight="600" fill="#15181d" text-anchor="end">693</text><svg x="28" y="131" width="14" height="14" viewBox="0 0 16 16" fill="none" stroke="#656d76" stroke-width="1.5" stroke-linecap="round" stroke-linejoin="round" aria-hidden="true"><circle cx="4.9" cy="4" r="1.8"/><circle cx="4.9" cy="12" r="1.8"/><circle cx="11.1" cy="4" r="1.8"/><path d="M4.9 5.8v4.4M11.1 5.8v1.9c0 2.1-1.7 2.9-3.7 3.2"/></svg><text x="50" y="142" font-size="12.5" font-weight="400" fill="#15181d">Pull Requests</text><text x="372" y="142" font-size="12.5" font-weight="600" fill="#15181d" text-anchor="end">444</text><svg x="28" y="161" width="14" height="14" viewBox="0 0 16 16" fill="none" stroke="#656d76" stroke-width="1.5" stroke-linecap="round" stroke-linejoin="round" aria-hidden="true"><circle cx="8" cy="8" r="5.7"/><path d="M8 4.9v3.4"/><circle cx="8" cy="11.1" r="0.85" fill="#656d76" stroke="none"/></svg><text x="50" y="172" font-size="12.5" font-weight="400" fill="#15181d">Issues</text><text x="372" y="172" font-size="12.5" font-weight="600" fill="#15181d" text-anchor="end">52</text><circle cx="440" cy="124" r="38" fill="none" stroke="#e4e8ee" stroke-width="3"/><circle cx="440" cy="124" r="38" fill="none" stroke="#0b69d4" stroke-width="3" stroke-linecap="round" stroke-dasharray="221.6 238.8" transform="rotate(-90 440 124)"/><text x="440" y="134" font-size="30" font-weight="600" fill="#15181d" text-anchor="middle">A+</text><text x="440" y="180" font-size="10" font-weight="400" fill="#656d76" text-anchor="middle">RANK · 10,053</text><path d="M500.5 30V206" stroke="#ebedf0" stroke-width="1"/><text x="512" y="44" font-size="10.5" font-weight="600" fill="#656d76" letter-spacing="0.09em">LANGUAGES</text><defs><clipPath id="gps-language-bar"><rect x="512" y="60" width="460" height="5" rx="2.5"/></clipPath></defs><rect x="512" y="60" width="460" height="5" rx="2.5" fill="#e4e8ee"/><g clip-path="url(#gps-language-bar)"><rect x="512" y="60" width="157" height="5" fill="#dea584"/><rect x="669" y="60" width="88" height="5" fill="#ec915c"/><rect x="757" y="60" width="63" height="5" fill="#db5855"/><rect x="820" y="60" width="34" height="5" fill="#00ADD8"/><rect x="854" y="60" width="30" height="5" fill="#b07219"/><rect x="884" y="60" width="15" height="5" fill="#F05138"/></g><circle cx="516" cy="96" r="4" fill="#dea584"/><text x="528" y="100" font-size="12" font-weight="400" fill="#15181d">Rust</text><text x="730" y="100" font-size="12" font-weight="600" fill="#656d76" text-anchor="end">34.1%</text><circle cx="516" cy="120" r="4" fill="#ec915c"/><text x="528" y="124" font-size="12" font-weight="400" fill="#15181d">Zig</text><text x="730" y="124" font-size="12" font-weight="600" fill="#656d76" text-anchor="end">19.2%</text><circle cx="516" cy="144" r="4" fill="#db5855"/><text x="528" y="148" font-size="12" font-weight="400" fill="#15181d">Clojure</text><text x="730" y="148" font-size="12" font-weight="600" fill="#656d76" text-anchor="end">13.8%</text><circle cx="758" cy="96" r="4" fill="#00ADD8"/><text x="770" y="100" font-size="12" font-weight="400" fill="#15181d">Go</text><text x="972" y="100" font-size="12" font-weight="600" fill="#656d76" text-anchor="end">7.4%</text><circle cx="758" cy="120" r="4" fill="#b07219"/><text x="770" y="124" font-size="12" font-weight="400" fill="#15181d">Java</text><text x="972" y="124" font-size="12" font-weight="600" fill="#656d76" text-anchor="end">6.3%</text><circle cx="758" cy="144" r="4" fill="#F05138"/><text x="770" y="148" font-size="12" font-weight="400" fill="#15181d">Swift</text><text x="972" y="148" font-size="12" font-weight="600" fill="#656d76" text-anchor="end">3.4%</text><path d="M28 222.5H972" stroke="#ebedf0" stroke-width="1"/><text x="28" y="254" font-size="10.5" font-weight="600" fill="#656d76" letter-spacing="0.09em">STREAK</text><text x="28" y="294" font-size="11" font-weight="400" fill="#656d76">Total Contributions</text><text x="28" y="334" font-size="34" font-weight="600" fill="#15181d">16,190</text><text x="28" y="360" font-size="11" font-weight="400" fill="#656d76">through Aug 21 2026</text><path d="M330.5 262V392" stroke="#ebedf0" stroke-width="1"/><path d="M499.00 280.00A32 32 0 0 1 504.40 280.46" fill="none" stroke="#ffc65c" stroke-width="10"/><path d="M503.01 280.25A32 32 0 0 1 508.31 281.39" fill="none" stroke="#ffa726" stroke-width="10"/><path d="M506.96 281.01A32 32 0 0 1 512.08 282.79" fill="none" stroke="#ffa726" stroke-width="10"/><path d="M510.78 282.25A32 32 0 0 1 515.63 284.66" fill="none" stroke="#ffe3ad" stroke-width="10"/><path d="M514.42 283.96A32 32 0 0 1 518.93 286.96" fill="none" stroke="#ffe3ad" stroke-width="10"/><path d="M517.81 286.11A32 32 0 0 1 521.91 289.66" fill="none" stroke="#ffe3ad" stroke-width="10"/><path d="M520.91 288.67A32 32 0 0 1 524.53 292.71" fill="none" stroke="#fb8c00" stroke-width="10"/><path d="M523.66 291.60A32 32 0 0 1 526.75 296.06" fill="none" stroke="#fb8c00" stroke-width="10"/><path d="M526.02 294.85A32 32 0 0 1 528.53 299.66" fill="none" stroke="#ffe3ad" stroke-width="10"/><path d="M527.95 298.38A32 32 0 0 1 529.84 303.46" fill="none" stroke="#ffe3ad" stroke-width="10"/><path d="M529.43 302.11A32 32 0 0 1 530.67 307.39" fill="none" stroke="#ffa726" stroke-width="10"/><path d="M530.43 306.00A32 32 0 0 1 530.99 311.40" fill="none" stroke="#ffe3ad" stroke-width="10"/><path d="M530.94 309.99A32 32 0 0 1 530.82 315.41" fill="none" stroke="#ffa726" stroke-width="10"/><path d="M530.94 314.01A32 32 0 0 1 530.14 319.37" fill="none" stroke="#ffa726" stroke-width="10"/><path d="M530.43 318.00A32 32 0 0 1 528.97 323.22" fill="none" stroke="#ffc65c" stroke-width="10"/><path d="M529.43 321.89A32 32 0 0 1 527.33 326.88" fill="none" stroke="#ffa726" stroke-width="10"/><path d="M527.95 325.62A32 32 0 0 1 525.24 330.32" fill="none" stroke="#ffe3ad" stroke-width="10"/><path d="M526.02 329.15A32 32 0 0 1 522.74 333.46" fill="none" stroke="#ffc65c" stroke-width="10"/><path d="M523.66 332.40A32 32 0 0 1 519.86 336.27" fill="none" stroke="#ffa726" stroke-width="10"/><path d="M520.91 335.33A32 32 0 0 1 516.65 338.69" fill="none" stroke="#ffc65c" stroke-width="10"/><path d="M517.81 337.89A32 32 0 0 1 513.17 340.69" fill="none" stroke="#ffe3ad" stroke-width="10"/><path d="M514.42 340.04A32 32 0 0 1 509.46 342.24" fill="none" stroke="#ffa726" stroke-width="10"/><path d="M510.78 341.75A32 32 0 0 1 505.59 343.31" fill="none" stroke="#ffe3ad" stroke-width="10"/><path d="M506.96 342.99A32 32 0 0 1 501.61 343.89" fill="none" stroke="#ffe3ad" stroke-width="10"/><path d="M503.01 343.75A32 32 0 0 1 497.59 343.97" fill="none" stroke="#ffe3ad" stroke-width="10"/><path d="M499.00 344.00A32 32 0 0 1 493.60 343.54" fill="none" stroke="#ffe3ad" stroke-width="10"/><path d="M494.99 343.75A32 32 0 0 1 489.69 342.61" fill="none" stroke="#ffe3ad" stroke-width="10"/><path d="M491.04 342.99A32 32 0 0 1 485.92 341.21" fill="none" stroke="#ffc65c" stroke-width="10"/><path d="M487.22 341.75A32 32 0 0 1 482.37 339.34" fill="none" stroke="#ffe3ad" stroke-width="10"/><path d="M483.58 340.04A32 32 0 0 1 479.07 337.04" fill="none" stroke="#ffe3ad" stroke-width="10"/><path d="M480.19 337.89A32 32 0 0 1 476.09 334.34" fill="none" stroke="#ffe3ad" stroke-width="10"/><path d="M477.09 335.33A32 32 0 0 1 473.47 331.29" fill="none" stroke="#ffe3ad" stroke-width="10"/><path d="M474.34 332.40A32 32 0 0 1 471.25 327.94" fill="none" stroke="#ffc65c" stroke-width="10"/><path d="M471.98 329.15A32 32 0 0 1 469.47 324.34" fill="none" stroke="#ffc65c" stroke-width="10"/><path d="M470.05 325.62A32 32 0 0 1 468.16 320.54" fill="none" stroke="#ffe3ad" stroke-width="10"/><path d="M468.57 321.89A32 32 0 0 1 467.33 316.61" fill="none" stroke="#ffc65c" stroke-width="10"/><path d="M467.57 318.00A32 32 0 0 1 467.01 312.60" fill="none" stroke="#ffc65c" stroke-width="10"/><path d="M467.06 314.01A32 32 0 0 1 467.18 308.59" fill="none" stroke="#ffe3ad" stroke-width="10"/><path d="M467.06 309.99A32 32 0 0 1 467.86 304.63" fill="none" stroke="#ffe3ad" stroke-width="10"/><path d="M467.57 306.00A32 32 0 0 1 469.03 300.78" fill="none" stroke="#ffe3ad" stroke-width="10"/><path d="M468.57 302.11A32 32 0 0 1 470.67 297.12" fill="none" stroke="#ffc65c" stroke-width="10"/><path d="M470.05 298.38A32 32 0 0 1 472.76 293.68" fill="none" stroke="#ffe3ad" stroke-width="10"/><path d="M471.98 294.85A32 32 0 0 1 475.26 290.54" fill="none" stroke="#ffa726" stroke-width="10"/><path d="M474.34 291.60A32 32 0 0 1 478.14 287.73" fill="none" stroke="#ffc65c" stroke-width="10"/><path d="M477.09 288.67A32 32 0 0 1 481.35 285.31" fill="none" stroke="#ffc65c" stroke-width="10"/><path d="M480.19 286.11A32 32 0 0 1 484.83 283.31" fill="none" stroke="#ffe3ad" stroke-width="10"/><path d="M483.58 283.96A32 32 0 0 1 488.54 281.76" fill="none" stroke="#ffe3ad" stroke-width="10"/><path d="M487.22 282.25A32 32 0 0 1 492.41 280.69" fill="none" stroke="#ffc65c" stroke-width="10"/><path d="M491.04 281.01A32 32 0 0 1 496.39 280.11" fill="none" stroke="#ffc65c" stroke-width="10"/><path d="M494.99 280.25A32 32 0 0 1 500.41 280.03" fill="none" stroke="#ffa726" stroke-width="10"/><text x="499" y="320" font-size="26" font-weight="600" fill="#15181d" text-anchor="middle">117</text><text x="499" y="370" font-size="11.5" font-weight="400" fill="#656d76" text-anchor="middle">Current Streak</text><text x="499" y="387" font-size="10.5" font-weight="400" fill="#656d76" text-anchor="middle">Apr 27 2026 – Aug 21 2026</text><path d="M644.5 262V392" stroke="#ebedf0" stroke-width="1"/><text x="656" y="294" font-size="11" font-weight="400" fill="#656d76">Longest Streak</text><text x="656" y="334" font-size="34" font-weight="600" fill="#15181d">117</text><text x="723" y="334" font-size="11.5" font-weight="400" fill="#656d76">days</text><text x="656" y="360" font-size="11" font-weight="400" fill="#656d76">Apr 27 2026 – Aug 21 2026</text></svg>