<svg xmlns="http://www.w3.org/2000/svg" width="1000" height="420" viewBox="0 0 1000 420" role="img"><defs><linearGradient id="bg" x1="0" y1="0" x2="1" y2="1"><stop offset="0%" stop-color="#f6f8ff"/><stop offset="100%" stop-color="#f0e7ff"/></linearGradient><filter id="shadow" x="-10%" y="-10%" width="120%" height="130%"><feDropShadow dx="0" dy="6" stdDeviation="8" flood-color="#1f2937" flood-opacity="0.10"/></filter></defs><rect width="100%" height="100%" fill="url(#bg)"/><g filter="url(#shadow)"><rect x="24" y="24" width="468" height="178" rx="18" fill="#ffffff" stroke="#d8dee8"/><rect x="44" y="46" width="5" height="34" rx="2.5" fill="#6f42c1"/><text x="60" y="56" font-family="Arial, sans-serif" font-size="19" font-weight="700" fill="#24292f">Stats</text><text x="60" y="74" font-family="Arial, sans-serif" font-size="12" fill="#57606a">Profile overview</text></g><g><svg x="48" y="82" width="16" height="16" viewBox="0 0 16 16" fill="#6f42c1" aria-hidden="true"><path d="M8 1.2l1.9 3.9 4.3.6-3.1 3 .7 4.3L8 11l-3.8 2 .7-4.3-3.1-3 4.3-.6L8 1.2z"/></svg><text x="70" y="95" font-family="Arial, sans-serif" font-size="12" font-weight="700" fill="#24292f">Total Stars</text><text x="318" y="95" text-anchor="end" font-family="Arial, sans-serif" font-size="14" font-weight="800" fill="#24292f">7016</text></g><g><svg x="48" y="110" width="16" height="16" viewBox="0 0 16 16" fill="#1a7f37" aria-hidden="true"><path d="M8 4a4 4 0 1 1 0 8 4 4 0 0 1 0-8zm0 2a2 2 0 1 0 0 4 2 2 0 0 0 0-4zM0 7h4v2H0V7zm12 0h4v2h-4V7z"/></svg><text x="70" y="123" font-family="Arial, sans-serif" font-size="12" font-weight="700" fill="#24292f">Commits</text><text x="318" y="123" text-anchor="end" font-family="Arial, sans-serif" font-size="14" font-weight="800" fill="#24292f">294</text></g><g><svg x="48" y="138" width="16" height="16" viewBox="0 0 16 16" fill="#fb8500" aria-hidden="true"><path d="M5 3a2 2 0 1 1-3 1.7V11a2 2 0 1 1-2 0V4.7A2 2 0 0 1 3 3zm8 0a2 2 0 0 1 1 3.7V9a4 4 0 0 1-4 4H8v2L5 12l3-3v2h2a2 2 0 0 0 2-2V6.7A2 2 0 0 1 13 3z"/></svg><text x="70" y="151" font-family="Arial, sans-serif" font-size="12" font-weight="700" fill="#24292f">Pull Requests</text><text x="318" y="151" text-anchor="end" font-family="Arial, sans-serif" font-size="14" font-weight="800" fill="#24292f">166</text></g><g><svg x="48" y="166" width="16" height="16" viewBox="0 0 16 16" fill="#d63384" aria-hidden="true"><path d="M8 1.5a6.5 6.5 0 1 1 0 13 6.5 6.5 0 0 1 0-13zm0 2a1 1 0 0 0-1 1v4a1 1 0 1 0 2 0v-4a1 1 0 0 0-1-1zm0 8.5a1.1 1.1 0 1 0 0-2.2 1.1 1.1 0 0 0 0 2.2z"/></svg><text x="70" y="179" font-family="Arial, sans-serif" font-size="12" font-weight="700" fill="#24292f">Issues</text><text x="318" y="179" text-anchor="end" font-family="Arial, sans-serif" font-size="14" font-weight="800" fill="#24292f">43</text></g><g><circle cx="398" cy="134" r="42" fill="#ffffff" stroke="#f0e7ff" stroke-width="6"/><circle cx="398" cy="134" r="42" fill="none" stroke="#6f42c1" stroke-width="6" stroke-linecap="round" stroke-dasharray="205 264" transform="rotate(-90 398 134)"/><text x="398" y="142" text-anchor="middle" font-family="Arial, sans-serif" font-size="30" font-weight="900" fill="#24292f">A</text><text x="398" y="112" text-anchor="middle" font-family="Arial, sans-serif" font-size="10" font-weight="700" fill="#57606a">RANK</text><text x="398" y="161" text-anchor="middle" font-family="Arial, sans-serif" font-size="10" fill="#57606a">score 8159</text></g><g filter="url(#shadow)"><rect x="508" y="24" width="468" height="178" rx="18" fill="#ffffff" stroke="#d8dee8"/><rect x="528" y="46" width="5" height="34" rx="2.5" fill="#6f42c1"/><text x="544" y="56" font-family="Arial, sans-serif" font-size="19" font-weight="700" fill="#24292f">Languages</text><text x="544" y="74" font-family="Arial, sans-serif" font-size="12" fill="#57606a">Repository language share</text></g><rect x="532" y="82" width="420" height="8" rx="4" fill="#f0e7ff" stroke="none"/><rect x="534" y="82" width="107" height="8" rx="4" fill="#db5855" stroke="none"/><rect x="641" y="82" width="65" height="8" rx="4" fill="#dea584" stroke="none"/><rect x="706" y="82" width="48" height="8" rx="4" fill="#b07219" stroke="none"/><rect x="754" y="82" width="43" height="8" rx="4" fill="#ec915c" stroke="none"/><rect x="797" y="82" width="39" height="8" rx="4" fill="#00ADD8" stroke="none"/><rect x="836" y="82" width="114" height="8" rx="4" fill="#701516" stroke="none"/><svg x="532" y="106" width="12" height="12" viewBox="0 0 16 16" fill="#db5855" aria-hidden="true"><path d="M5.2 4.2 1.4 8l3.8 3.8 1.1-1.1L3.6 8l2.7-2.7-1.1-1.1zm5.6 0-1.1 1.1L12.4 8l-2.7 2.7 1.1 1.1L14.6 8l-3.8-3.8z"/></svg><text x="550" y="114" font-family="Arial, sans-serif" font-size="11" fill="#24292f">Clojure</text><text x="894" y="114" font-family="Arial, sans-serif" font-size="11" fill="#57606a">25.8%</text><rect x="626" y="108" width="270" height="5" rx="3" fill="#f0e7ff" stroke="none"/><rect x="626" y="108" width="69" height="5" rx="3" fill="#db5855" stroke="none"/><svg x="532" y="123" width="12" height="12" viewBox="0 0 16 16" fill="#dea584" aria-hidden="true"><path d="M5.2 4.2 1.4 8l3.8 3.8 1.1-1.1L3.6 8l2.7-2.7-1.1-1.1zm5.6 0-1.1 1.1L12.4 8l-2.7 2.7 1.1 1.1L14.6 8l-3.8-3.8z"/></svg><text x="550" y="131" font-family="Arial, sans-serif" font-size="11" fill="#24292f">Rust</text><text x="894" y="131" font-family="Arial, sans-serif" font-size="11" fill="#57606a">15.7%</text><rect x="626" y="125" width="270" height="5" rx="3" fill="#f0e7ff" stroke="none"/><rect x="626" y="125" width="42" height="5" rx="3" fill="#dea584" stroke="none"/><svg x="532" y="140" width="12" height="12" viewBox="0 0 16 16" fill="#b07219" aria-hidden="true"><path d="M5.2 4.2 1.4 8l3.8 3.8 1.1-1.1L3.6 8l2.7-2.7-1.1-1.1zm5.6 0-1.1 1.1L12.4 8l-2.7 2.7 1.1 1.1L14.6 8l-3.8-3.8z"/></svg><text x="550" y="148" font-family="Arial, sans-serif" font-size="11" fill="#24292f">Java</text><text x="894" y="148" font-family="Arial, sans-serif" font-size="11" fill="#57606a">11.8%</text><rect x="626" y="142" width="270" height="5" rx="3" fill="#f0e7ff" stroke="none"/><rect x="626" y="142" width="31" height="5" rx="3" fill="#b07219" stroke="none"/><svg x="532" y="157" width="12" height="12" viewBox="0 0 16 16" fill="#ec915c" aria-hidden="true"><path d="M5.2 4.2 1.4 8l3.8 3.8 1.1-1.1L3.6 8l2.7-2.7-1.1-1.1zm5.6 0-1.1 1.1L12.4 8l-2.7 2.7 1.1 1.1L14.6 8l-3.8-3.8z"/></svg><text x="550" y="165" font-family="Arial, sans-serif" font-size="11" fill="#24292f">Zig</text><text x="894" y="165" font-family="Arial, sans-serif" font-size="11" fill="#57606a">10.5%</text><rect x="626" y="159" width="270" height="5" rx="3" fill="#f0e7ff" stroke="none"/><rect x="626" y="159" width="28" height="5" rx="3" fill="#ec915c" stroke="none"/><svg x="532" y="174" width="12" height="12" viewBox="0 0 16 16" fill="#00ADD8" aria-hidden="true"><path d="M5.2 4.2 1.4 8l3.8 3.8 1.1-1.1L3.6 8l2.7-2.7-1.1-1.1zm5.6 0-1.1 1.1L12.4 8l-2.7 2.7 1.1 1.1L14.6 8l-3.8-3.8z"/></svg><text x="550" y="182" font-family="Arial, sans-serif" font-size="11" fill="#24292f">Go</text><text x="894" y="182" font-family="Arial, sans-serif" font-size="11" fill="#57606a">9.4%</text><rect x="626" y="176" width="270" height="5" rx="3" fill="#f0e7ff" stroke="none"/><rect x="626" y="176" width="25" height="5" rx="3" fill="#00ADD8" stroke="none"/><svg x="532" y="191" width="12" height="12" viewBox="0 0 16 16" fill="#701516" aria-hidden="true"><path d="M5.2 4.2 1.4 8l3.8 3.8 1.1-1.1L3.6 8l2.7-2.7-1.1-1.1zm5.6 0-1.1 1.1L12.4 8l-2.7 2.7 1.1 1.1L14.6 8l-3.8-3.8z"/></svg><text x="550" y="199" font-family="Arial, sans-serif" font-size="11" fill="#24292f">Ruby</text><text x="894" y="199" font-family="Arial, sans-serif" font-size="11" fill="#57606a">6.4%</text><rect x="626" y="193" width="270" height="5" rx="3" fill="#f0e7ff" stroke="none"/><rect x="626" y="193" width="17" height="5" rx="3" fill="#701516" stroke="none"/><g filter="url(#shadow)"><rect x="24" y="218" width="952" height="178" rx="18" fill="#ffffff" stroke="#d8dee8"/><rect x="44" y="240" width="5" height="34" rx="2.5" fill="#6f42c1"/><text x="60" y="250" font-family="Arial, sans-serif" font-size="19" font-weight="700" fill="#24292f">Streak</text><text x="60" y="268" font-family="Arial, sans-serif" font-size="12" fill="#57606a">Recent public activity</text></g><g><rect x="48" y="292" width="306" height="82" rx="16" fill="#f0e7ff" stroke="#d8dee8"/><text x="66" y="314" font-family="Arial, sans-serif" font-size="12" fill="#57606a">Total Contributions</text><text x="66" y="347" font-family="Arial, sans-serif" font-size="32" font-weight="900" fill="#24292f">10,204</text><text x="124" y="347" font-family="Arial, sans-serif" font-size="11" fill="#57606a"></text><rect x="66" y="354" width="270" height="2" rx="1" fill="#6f42c1"/><text x="66" y="368" font-family="Arial, sans-serif" font-size="10" fill="#57606a">May 13 2026</text></g><g><defs><mask id="psm-streak-flame-cut" maskUnits="userSpaceOnUse"><rect x="-1000" y="-1000" width="6000" height="6000" fill="white"/><ellipse cx="500" cy="283" rx="9" ry="12" fill="black"/></mask></defs><circle cx="500" cy="318" r="34" fill="#ffffff" stroke="#f0e7ff" stroke-width="3" mask="url(#psm-streak-flame-cut)"/><circle cx="500" cy="318" r="34" fill="none" stroke="#ff8c1a" stroke-width="3" mask="url(#psm-streak-flame-cut)"/><g transform="translate(500,280)"><path d="M 0 -7 C 4 -3 5 1 5 5 C 5 10 3 14 0 15 C -3 14 -5 10 -5 5 C -5 1 -3 -1 0 -7 Z" fill="#ff8c1a"/><path d="M -1 5 C 1 5 2 7 2 10 C 2 13 1 14 0 14 C -1 14 -2 13 -2 10 C -2 8 -1 6 -1 5 Z" fill="#ffd166"/></g><text x="500" y="328" text-anchor="middle" font-family="Arial, sans-serif" font-size="34" font-weight="800" fill="#24292f">17</text><text x="500" y="370" text-anchor="middle" font-family="Arial, sans-serif" font-size="14" font-weight="700" fill="#ff8c1a">Current Streak</text><text x="500" y="386" text-anchor="middle" font-family="Arial, sans-serif" font-size="12" fill="#57606a">Apr 27 2026 - May 13 2026</text></g><g><rect x="646" y="292" width="306" height="82" rx="16" fill="#f0e7ff" stroke="#d8dee8"/><text x="664" y="314" font-family="Arial, sans-serif" font-size="12" fill="#57606a">Longest Streak</text><text x="664" y="347" font-family="Arial, sans-serif" font-size="32" font-weight="900" fill="#24292f">25</text><text x="722" y="347" font-family="Arial, sans-serif" font-size="11" fill="#57606a">days</text><rect x="664" y="354" width="270" height="2" rx="1" fill="#1a7f37"/><text x="664" y="368" font-family="Arial, sans-serif" font-size="10" fill="#57606a">Oct 13 2017 - Nov 6 2017</text></g></svg>