<svg xmlns="http://www.w3.org/2000/svg" width="1000" height="420" viewBox="0 0 1000 420" role="img" shape-rendering="geometricPrecision"><defs><linearGradient id="bg" x1="0" y1="0" x2="1" y2="1"><stop offset="0%" stop-color="#f6f8ff"/><stop offset="100%" stop-color="#f0e7ff"/></linearGradient><filter id="shadow" x="-10%" y="-10%" width="120%" height="130%"><feDropShadow dx="0" dy="4" stdDeviation="10" flood-color="#1f2937" flood-opacity="0.08"/></filter></defs><rect width="100%" height="100%" fill="url(#bg)"/><g filter="url(#shadow)"><rect x="24" y="24" width="468" height="178" rx="18" fill="#ffffff" stroke="#d8dee8"/><rect x="44" y="46" width="2.5" height="34" rx="1.25" fill="#6f42c1"/><text x="60" y="56" font-family="'Helvetica Neue', Arial, sans-serif" font-size="19" font-weight="500" fill="#24292f">Stats</text><text x="60" y="74" font-family="Arial, sans-serif" font-size="12" fill="#57606a">Profile overview</text></g><g><svg x="48" y="82" width="16" height="16" viewBox="0 0 16 16" aria-hidden="true"><path d="M8 2.1l1.7 3.5 3.9.6-2.8 2.7.6 3.8L8 11.1l-3.4 1.6.6-3.8-2.8-2.7 3.9-.6z" fill="none" stroke="#6f42c1" stroke-width="1.2" stroke-linejoin="round"/></svg><text x="70" y="95" font-family="'Helvetica Neue', Arial, sans-serif" font-size="12" font-weight="500" fill="#24292f">Total Stars</text><text x="318" y="95" text-anchor="end" font-family="'Helvetica Neue', Arial, sans-serif" font-size="14" font-weight="500" fill="#24292f">7270</text></g><g><svg x="48" y="110" width="16" height="16" viewBox="0 0 16 16" aria-hidden="true"><circle cx="8" cy="8" r="2.4" fill="none" stroke="#1a7f37" stroke-width="1.3"/><path d="M1 8h4.4M10.6 8H15" fill="none" stroke="#1a7f37" stroke-width="1.3" stroke-linecap="round"/></svg><text x="70" y="123" font-family="'Helvetica Neue', Arial, sans-serif" font-size="12" font-weight="500" fill="#24292f">Commits</text><text x="318" y="123" text-anchor="end" font-family="'Helvetica Neue', Arial, sans-serif" font-size="14" font-weight="500" fill="#24292f">477</text></g><g><svg x="48" y="138" width="16" height="16" viewBox="0 0 16 16" aria-hidden="true"><circle cx="5" cy="3.9" r="1.7" fill="none" stroke="#fb8500" stroke-width="1.2"/><circle cx="5" cy="12.1" r="1.7" fill="none" stroke="#fb8500" stroke-width="1.2"/><circle cx="11" cy="3.9" r="1.7" fill="none" stroke="#fb8500" stroke-width="1.2"/><path d="M5 5.6v4.8M11 5.6v2.2c0 2-1.6 2.7-3.6 3" fill="none" stroke="#fb8500" stroke-width="1.2" stroke-linecap="round"/></svg><text x="70" y="151" font-family="'Helvetica Neue', Arial, sans-serif" font-size="12" font-weight="500" fill="#24292f">Pull Requests</text><text x="318" y="151" text-anchor="end" font-family="'Helvetica Neue', Arial, sans-serif" font-size="14" font-weight="500" fill="#24292f">312</text></g><g><svg x="48" y="166" width="16" height="16" viewBox="0 0 16 16" aria-hidden="true"><circle cx="8" cy="8" r="6" fill="none" stroke="#d63384" stroke-width="1.2"/><path d="M8 4.6v3.9" fill="none" stroke="#d63384" stroke-width="1.4" stroke-linecap="round"/><circle cx="8" cy="11.2" r="0.9" fill="#d63384"/></svg><text x="70" y="179" font-family="'Helvetica Neue', Arial, sans-serif" font-size="12" font-weight="500" fill="#24292f">Issues</text><text x="318" y="179" text-anchor="end" font-family="'Helvetica Neue', Arial, sans-serif" font-size="14" font-weight="500" fill="#24292f">50</text></g><g><circle cx="398" cy="134" r="42" fill="#ffffff" stroke="#f0e7ff" stroke-width="2.5"/><circle cx="398" cy="134" r="42" fill="none" stroke="#6f42c1" stroke-width="2.5" stroke-linecap="round" stroke-dasharray="205 264" transform="rotate(-90 398 134)"/><text x="398" y="142" text-anchor="middle" font-family="Arial, sans-serif" font-size="30" font-weight="700" fill="#24292f">A+</text><text x="398" y="112" text-anchor="middle" font-family="Arial, sans-serif" font-size="10" font-weight="600" fill="#57606a">RANK</text><text x="398" y="161" text-anchor="middle" font-family="Arial, sans-serif" font-size="10" fill="#57606a">score 9221</text></g><g filter="url(#shadow)"><rect x="508" y="24" width="468" height="178" rx="18" fill="#ffffff" stroke="#d8dee8"/><rect x="528" y="46" width="2.5" height="34" rx="1.25" fill="#6f42c1"/><text x="544" y="56" font-family="'Helvetica Neue', Arial, sans-serif" font-size="19" font-weight="500" fill="#24292f">Languages</text><text x="544" y="74" font-family="Arial, sans-serif" font-size="12" fill="#57606a">Repository language share</text></g><rect x="532" y="82" width="420" height="6" rx="3" fill="#f0e7ff" stroke="none"/><rect x="534" y="82" width="132" height="6" rx="3" fill="#dea584" stroke="none"/><rect x="666" y="82" width="83" height="6" rx="3" fill="#ec915c" stroke="none"/><rect x="749" y="82" width="79" height="6" rx="3" fill="#db5855" stroke="none"/><rect x="828" y="82" width="36" height="6" rx="3" fill="#b07219" stroke="none"/><rect x="864" y="82" width="14" height="6" rx="3" fill="#3572A5" stroke="none"/><rect x="878" y="82" width="72" height="6" rx="3" fill="#c065db" stroke="none"/><svg x="532" y="106" width="12" height="12" viewBox="0 0 16 16" aria-hidden="true"><path d="M6 4.8 2.8 8l3.2 3.2M10 4.8 13.2 8 10 11.2" fill="none" stroke="#dea584" stroke-width="1.4" stroke-linecap="round" stroke-linejoin="round"/></svg><text x="550" y="114" font-family="Arial, sans-serif" font-size="11" fill="#24292f">Rust</text><text x="894" y="114" font-family="Arial, sans-serif" font-size="11" fill="#57606a">31.8%</text><rect x="626" y="108" width="270" height="4" rx="2" fill="#f0e7ff" stroke="none"/><rect x="626" y="108" width="85" height="4" rx="2" fill="#dea584" stroke="none"/><svg x="532" y="123" width="12" height="12" viewBox="0 0 16 16" aria-hidden="true"><path d="M6 4.8 2.8 8l3.2 3.2M10 4.8 13.2 8 10 11.2" fill="none" stroke="#ec915c" stroke-width="1.4" stroke-linecap="round" stroke-linejoin="round"/></svg><text x="550" y="131" font-family="Arial, sans-serif" font-size="11" fill="#24292f">Zig</text><text x="894" y="131" font-family="Arial, sans-serif" font-size="11" fill="#57606a">20.1%</text><rect x="626" y="125" width="270" height="4" rx="2" fill="#f0e7ff" stroke="none"/><rect x="626" y="125" width="54" height="4" rx="2" fill="#ec915c" stroke="none"/><svg x="532" y="140" width="12" height="12" viewBox="0 0 16 16" aria-hidden="true"><path d="M6 4.8 2.8 8l3.2 3.2M10 4.8 13.2 8 10 11.2" fill="none" stroke="#db5855" stroke-width="1.4" stroke-linecap="round" stroke-linejoin="round"/></svg><text x="550" y="148" font-family="Arial, sans-serif" font-size="11" fill="#24292f">Clojure</text><text x="894" y="148" font-family="Arial, sans-serif" font-size="11" fill="#57606a">19.1%</text><rect x="626" y="142" width="270" height="4" rx="2" fill="#f0e7ff" stroke="none"/><rect x="626" y="142" width="51" height="4" rx="2" fill="#db5855" stroke="none"/><svg x="532" y="157" width="12" height="12" viewBox="0 0 16 16" aria-hidden="true"><path d="M6 4.8 2.8 8l3.2 3.2M10 4.8 13.2 8 10 11.2" fill="none" stroke="#b07219" stroke-width="1.4" stroke-linecap="round" stroke-linejoin="round"/></svg><text x="550" y="165" font-family="Arial, sans-serif" font-size="11" fill="#24292f">Java</text><text x="894" y="165" font-family="Arial, sans-serif" font-size="11" fill="#57606a">8.8%</text><rect x="626" y="159" width="270" height="4" rx="2" fill="#f0e7ff" stroke="none"/><rect x="626" y="159" width="23" height="4" rx="2" fill="#b07219" stroke="none"/><svg x="532" y="174" width="12" height="12" viewBox="0 0 16 16" aria-hidden="true"><path d="M6 4.8 2.8 8l3.2 3.2M10 4.8 13.2 8 10 11.2" fill="none" stroke="#3572A5" stroke-width="1.4" stroke-linecap="round" stroke-linejoin="round"/></svg><text x="550" y="182" font-family="Arial, sans-serif" font-size="11" fill="#24292f">Python</text><text x="894" y="182" font-family="Arial, sans-serif" font-size="11" fill="#57606a">3.6%</text><rect x="626" y="176" width="270" height="4" rx="2" fill="#f0e7ff" stroke="none"/><rect x="626" y="176" width="9" height="4" rx="2" fill="#3572A5" stroke="none"/><svg x="532" y="191" width="12" height="12" viewBox="0 0 16 16" aria-hidden="true"><path d="M6 4.8 2.8 8l3.2 3.2M10 4.8 13.2 8 10 11.2" fill="none" stroke="#c065db" stroke-width="1.4" stroke-linecap="round" stroke-linejoin="round"/></svg><text x="550" y="199" font-family="Arial, sans-serif" font-size="11" fill="#24292f">Emacs Lisp</text><text x="894" y="199" font-family="Arial, sans-serif" font-size="11" fill="#57606a">3.0%</text><rect x="626" y="193" width="270" height="4" rx="2" fill="#f0e7ff" stroke="none"/><rect x="626" y="193" width="8" height="4" rx="2" fill="#c065db" stroke="none"/><g filter="url(#shadow)"><rect x="24" y="218" width="952" height="178" rx="18" fill="#ffffff" stroke="#d8dee8"/><rect x="44" y="240" width="2.5" height="34" rx="1.25" fill="#6f42c1"/><text x="60" y="250" font-family="'Helvetica Neue', Arial, sans-serif" font-size="19" font-weight="500" fill="#24292f">Streak</text><text x="60" y="268" font-family="Arial, sans-serif" font-size="12" fill="#57606a">Recent public activity</text></g><g><rect x="48" y="292" width="306" height="82" rx="16" fill="#f0e7ff" stroke="#d8dee8"/><text x="66" y="314" font-family="Arial, sans-serif" font-size="12" fill="#57606a">Total Contributions</text><text x="66" y="347" font-family="'Helvetica Neue', Arial, sans-serif" font-size="32" font-weight="500" fill="#24292f">12,169</text><text x="124" y="347" font-family="Arial, sans-serif" font-size="11" fill="#57606a"></text><rect x="66" y="354" width="270" height="1.5" rx="0.75" fill="#6f42c1"/><text x="66" y="368" font-family="Arial, sans-serif" font-size="10" fill="#57606a">Jul 21 2026</text></g><g><defs><mask id="psm-streak-flame-cut" maskUnits="userSpaceOnUse"><rect x="-1000" y="-1000" width="6000" height="6000" fill="white"/><ellipse cx="500" cy="278" rx="10" ry="15" fill="black"/></mask></defs><circle cx="500" cy="318" r="34" fill="#ffffff" stroke="#f0e7ff" stroke-width="2" mask="url(#psm-streak-flame-cut)"/><circle cx="500" cy="318" r="34" fill="none" stroke="#fb8c00" stroke-width="2" mask="url(#psm-streak-flame-cut)"/><g transform="translate(500,273)"><path d="M 1.4 -10.8 C 2 -8 2.6 -5.4 2.5 -3.4 C 2.4 -1.2 1 0.4 -0.9 0.4 C -2.8 0.4 -4.2 -1.2 -4.4 -3 C -6.4 -0.8 -8.2 2.8 -8.2 6.4 C -8.2 10.6 -4.4 13.2 0 13.2 C 4.4 13.2 8.2 10.6 8.2 6.4 C 8.2 1 5.6 -4.4 1.4 -10.8 Z M -0.3 10.4 C -2.1 10.4 -3.5 9 -3.5 7.3 C -3.5 5.7 -2.5 4.6 -0.8 4.2 C 1 3.8 2.7 2.9 3.7 1.6 C 4.1 2.8 4.3 4.1 4.3 5.4 C 4.3 8.2 2.3 10.4 -0.3 10.4 Z" fill="#fb8c00" fill-rule="evenodd"/></g><text x="500" y="328" text-anchor="middle" font-family="Arial, sans-serif" font-size="34" font-weight="800" fill="#24292f">86</text><text x="500" y="370" text-anchor="middle" font-family="Arial, sans-serif" font-size="14" font-weight="700" fill="#fb8c00">Current Streak</text><text x="500" y="386" text-anchor="middle" font-family="Arial, sans-serif" font-size="12" fill="#57606a">Apr 27 2026 - Jul 21 2026</text></g><g><rect x="646" y="292" width="306" height="82" rx="16" fill="#f0e7ff" stroke="#d8dee8"/><text x="664" y="314" font-family="Arial, sans-serif" font-size="12" fill="#57606a">Longest Streak</text><text x="664" y="347" font-family="'Helvetica Neue', Arial, sans-serif" font-size="32" font-weight="500" fill="#24292f">86</text><text x="722" y="347" font-family="Arial, sans-serif" font-size="11" fill="#57606a">days</text><rect x="664" y="354" width="270" height="1.5" rx="0.75" fill="#1a7f37"/><text x="664" y="368" font-family="Arial, sans-serif" font-size="10" fill="#57606a">Apr 27 2026 - Jul 21 2026</text></g></svg>