<svg xmlns="http://www.w3.org/2000/svg" width="275" height="220" viewBox="0 0 275 220" role="img" aria-labelledby="gps-title" shape-rendering="geometricPrecision" text-rendering="optimizeLegibility" font-family="ui-monospace, SFMono-Regular, 'SF Mono', Menlo, Consolas, 'Liberation Mono', monospace" style="font-variant-numeric:tabular-nums"><title id="gps-title">Top languages for liuchong</title><rect width="100%" height="100%" fill="#0d1117"/><text x="16" y="32" font-size="10.5" font-weight="600" fill="#8b949e" letter-spacing="0.09em">LANGUAGES</text><defs><clipPath id="gps-language-bar"><rect x="16" y="48" width="243" height="5" rx="2.5"/></clipPath></defs><rect x="16" y="48" width="243" height="5" rx="2.5" fill="#262c36"/><g clip-path="url(#gps-language-bar)"><rect x="16" y="48" width="78" height="5" fill="#dea584"/><rect x="94" y="48" width="49" height="5" fill="#ec915c"/><rect x="143" y="48" width="28" height="5" fill="#db5855"/><rect x="171" y="48" width="22" height="5" fill="#c065db"/><rect x="193" y="48" width="15" height="5" fill="#00ADD8"/><rect x="208" y="48" width="12" height="5" fill="#b07219"/></g><circle cx="20" cy="68" r="3.5" fill="#dea584"/><text x="31" y="72" font-size="11.5" font-weight="400" fill="#e6edf3">Rust</text><rect x="106" y="65" width="101" height="4" rx="2" fill="#262c36"/><rect x="106" y="65" width="32" height="4" rx="2" fill="#dea584"/><text x="259" y="72" font-size="11.5" font-weight="600" fill="#8b949e" text-anchor="end">32.2%</text><circle cx="20" cy="88" r="3.5" fill="#ec915c"/><text x="31" y="92" font-size="11.5" font-weight="400" fill="#e6edf3">Zig</text><rect x="106" y="85" width="101" height="4" rx="2" fill="#262c36"/><rect x="106" y="85" width="20" height="4" rx="2" fill="#ec915c"/><text x="259" y="92" font-size="11.5" font-weight="600" fill="#8b949e" text-anchor="end">20.4%</text><circle cx="20" cy="108" r="3.5" fill="#db5855"/><text x="31" y="112" font-size="11.5" font-weight="400" fill="#e6edf3">Clojure</text><rect x="106" y="105" width="101" height="4" rx="2" fill="#262c36"/><rect x="106" y="105" width="11" height="4" rx="2" fill="#db5855"/><text x="259" y="112" font-size="11.5" font-weight="600" fill="#8b949e" text-anchor="end">11.3%</text><circle cx="20" cy="128" r="3.5" fill="#c065db"/><text x="31" y="132" font-size="11.5" font-weight="400" fill="#e6edf3">Emacs Lisp</text><rect x="106" y="125" width="101" height="4" rx="2" fill="#262c36"/><rect x="106" y="125" width="9" height="4" rx="2" fill="#c065db"/><text x="259" y="132" font-size="11.5" font-weight="600" fill="#8b949e" text-anchor="end">9.2%</text><circle cx="20" cy="148" r="3.5" fill="#00ADD8"/><text x="31" y="152" font-size="11.5" font-weight="400" fill="#e6edf3">Go</text><rect x="106" y="145" width="101" height="4" rx="2" fill="#262c36"/><rect x="106" y="145" width="6" height="4" rx="2" fill="#00ADD8"/><text x="259" y="152" font-size="11.5" font-weight="600" fill="#8b949e" text-anchor="end">6.0%</text><circle cx="20" cy="168" r="3.5" fill="#b07219"/><text x="31" y="172" font-size="11.5" font-weight="400" fill="#e6edf3">Java</text><rect x="106" y="165" width="101" height="4" rx="2" fill="#262c36"/><rect x="106" y="165" width="5" height="4" rx="2" fill="#b07219"/><text x="259" y="172" font-size="11.5" font-weight="600" fill="#8b949e" text-anchor="end">5.2%</text></svg>