<svg xmlns="http://www.w3.org/2000/svg" width="412" height="220" viewBox="0 0 412 220" role="img" aria-labelledby="gps-title" shape-rendering="geometricPrecision" text-rendering="optimizeLegibility" font-family="-apple-system, BlinkMacSystemFont, 'Segoe UI', Inter, 'Helvetica Neue', Arial, sans-serif" style="font-variant-numeric:tabular-nums"><title id="gps-title">GitHub stats for liuchong</title><rect width="100%" height="100%" fill="#ffffff"/><text x="20" y="36" font-size="10.5" font-weight="600" fill="#656d76" letter-spacing="0.09em">STATS</text><svg x="20" y="63" width="14" height="14" viewBox="0 0 16 16" fill="none" stroke="#656d76" stroke-width="1.5" stroke-linecap="round" stroke-linejoin="round" aria-hidden="true"><path d="M8 2.6l1.72 3.48 3.84.56-2.78 2.71.66 3.83L8 11.37l-3.44 1.81.66-3.83-2.78-2.71 3.84-.56z"/></svg><text x="42" y="74" font-size="12.5" font-weight="400" fill="#15181d">Total Stars</text><text x="288" y="74" font-size="12.5" font-weight="600" fill="#15181d" text-anchor="end">7,345</text><svg x="20" y="93" width="14" height="14" viewBox="0 0 16 16" fill="none" stroke="#656d76" stroke-width="1.5" stroke-linecap="round" stroke-linejoin="round" aria-hidden="true"><circle cx="8" cy="8" r="2.4"/><path d="M1.4 8h4.2M10.4 8h4.2"/></svg><text x="42" y="104" font-size="12.5" font-weight="400" fill="#15181d">Commits</text><text x="288" y="104" font-size="12.5" font-weight="600" fill="#15181d" text-anchor="end">733</text><svg x="20" y="123" width="14" height="14" viewBox="0 0 16 16" fill="none" stroke="#656d76" stroke-width="1.5" stroke-linecap="round" stroke-linejoin="round" aria-hidden="true"><circle cx="4.9" cy="4" r="1.8"/><circle cx="4.9" cy="12" r="1.8"/><circle cx="11.1" cy="4" r="1.8"/><path d="M4.9 5.8v4.4M11.1 5.8v1.9c0 2.1-1.7 2.9-3.7 3.2"/></svg><text x="42" y="134" font-size="12.5" font-weight="400" fill="#15181d">Pull Requests</text><text x="288" y="134" font-size="12.5" font-weight="600" fill="#15181d" text-anchor="end">450</text><svg x="20" y="153" width="14" height="14" viewBox="0 0 16 16" fill="none" stroke="#656d76" stroke-width="1.5" stroke-linecap="round" stroke-linejoin="round" aria-hidden="true"><circle cx="8" cy="8" r="5.7"/><path d="M8 4.9v3.4"/><circle cx="8" cy="11.1" r="0.85" fill="#656d76" stroke="none"/></svg><text x="42" y="164" font-size="12.5" font-weight="400" fill="#15181d">Issues</text><text x="288" y="164" font-size="12.5" font-weight="600" fill="#15181d" text-anchor="end">52</text><circle cx="349" cy="117" r="31" fill="none" stroke="#e4e8ee" stroke-width="3"/><circle cx="349" cy="117" r="31" fill="none" stroke="#0b69d4" stroke-width="3" stroke-linecap="round" stroke-dasharray="181.3 194.8" transform="rotate(-90 349 117)"/><text x="349" y="125" font-size="24" font-weight="600" fill="#15181d" text-anchor="middle">A+</text><text x="349" y="166" font-size="10" font-weight="400" fill="#656d76" text-anchor="middle">RANK · 10,116</text></svg>